<?xml version="1.0" standalone="no"?>
<!DOCTYPE svg PUBLIC "-//W3C//DTD SVG 20010904//EN"
 "http://www.w3.org/TR/2001/REC-SVG-20010904/DTD/svg10.dtd">
<svg version="1.0" xmlns="http://www.w3.org/2000/svg"
 width="348.000000pt" height="348.000000pt" viewBox="0 0 348.000000 348.000000"
 preserveAspectRatio="xMidYMid meet">
<metadata>
Created by potrace 1.14, written by Peter Selinger 2001-2017
</metadata>
<g transform="translate(0.000000,348.000000) scale(0.100000,-0.100000)"
fill="#000000" stroke="none">
<path d="M1204 2861 c-50 -23 -101 -83 -115 -136 -15 -53 -5 -128 22 -171 l21
-35 -28 -64 c-27 -61 -30 -65 -79 -80 -144 -47 -286 -156 -342 -262 -35 -66
-73 -206 -73 -267 0 -62 26 -159 61 -227 30 -60 30 -62 15 -100 -30 -75 -15
-158 40 -219 20 -22 44 -42 54 -45 14 -4 21 -19 25 -53 10 -72 43 -167 74
-209 35 -49 140 -149 180 -174 89 -54 229 -74 383 -54 56 7 58 7 105 -33 152
-126 312 -161 498 -107 154 45 246 127 325 290 l38 80 69 23 c147 51 271 149
323 255 44 91 74 227 66 303 -12 117 -70 240 -160 341 l-43 48 9 68 c5 38 8
85 6 105 -3 31 1 40 24 54 75 47 109 170 73 263 -21 55 -81 108 -141 125 -51
14 -126 7 -160 -15 -21 -13 -28 -12 -86 15 -103 48 -214 61 -341 40 l-59 -9
-63 48 c-123 95 -249 138 -370 127 -70 -6 -71 -6 -92 23 -49 66 -173 91 -259
52z m523 -251 c46 -22 83 -45 83 -49 0 -5 -19 -16 -42 -25 -24 -9 -76 -34
-116 -57 l-73 -40 -159 -3 c-87 -1 -157 1 -154 6 3 4 24 8 46 8 90 0 173 70
197 166 l12 47 61 -6 c44 -4 85 -17 145 -47z m589 -145 l49 -14 -3 -62 c-6
-106 43 -188 132 -220 32 -11 36 -17 36 -47 0 -37 4 -38 -80 18 -30 20 -86 54
-125 75 -38 22 -71 42 -73 46 -1 3 -34 54 -72 113 l-69 106 78 0 c42 0 100 -7
127 -15z m-332 -67 c19 -24 33 -44 32 -46 -5 -4 -186 43 -186 48 0 8 80 38
102 39 9 1 32 -18 52 -41z m-710 -206 c-55 -54 -100 -97 -102 -97 -3 2 26 166
30 171 4 3 117 20 152 23 12 1 -17 -34 -80 -97z m457 72 c106 -18 290 -72 371
-107 l53 -24 43 -109 c49 -125 99 -316 108 -413 l6 -67 -59 -74 c-114 -143
-169 -197 -211 -203 -58 -10 -124 -57 -152 -110 -24 -46 -25 -46 -65 -41 -165
24 -449 108 -486 145 -44 44 -135 337 -158 513 l-11 79 42 56 c98 131 361 371
407 371 10 0 60 -7 112 -16z m-706 -102 c-3 -27 -7 -99 -8 -162 l-1 -114 -48
-80 c-27 -45 -53 -95 -60 -113 -9 -25 -18 -32 -46 -35 -34 -4 -35 -3 -69 67
-46 97 -58 174 -37 244 12 43 28 67 77 116 59 58 157 124 185 125 11 0 12 -11
7 -48z m1413 -197 c28 -22 52 -45 52 -51 0 -7 -12 -45 -26 -83 -24 -66 -44
-84 -44 -42 0 11 -12 59 -26 107 -41 139 -39 130 -23 118 8 -5 38 -28 67 -49z
m243 -277 c33 -66 59 -156 59 -207 0 -83 -100 -206 -218 -269 -35 -19 -65 -32
-67 -30 -3 2 0 53 5 114 5 61 6 128 3 150 -4 35 1 52 45 128 28 48 63 117 79
152 l28 65 19 -23 c10 -13 31 -49 47 -80z m-1622 -98 c1 -12 -1 -12 -14 1 -10
10 -13 22 -9 34 7 18 8 18 15 -1 4 -10 8 -26 8 -34z m55 -195 c3 -8 1 -15 -4
-15 -6 0 -10 7 -10 15 0 8 2 15 4 15 2 0 6 -7 10 -15z m1194 -157 c-13 -99
-17 -105 -38 -70 -10 16 -24 33 -30 37 -8 5 2 22 31 51 24 24 44 44 44 44 1 0
-2 -28 -7 -62z m-1130 -82 c40 -20 56 -37 82 -83 18 -32 50 -82 71 -110 l40
-53 -80 0 c-93 0 -185 25 -237 65 -44 33 -90 128 -100 202 -6 49 -5 52 22 66
26 14 31 13 90 -24 35 -21 85 -49 112 -63z m348 -136 c16 -5 49 -14 74 -21
l45 -12 -40 -18 c-57 -25 -67 -23 -97 15 -40 49 -37 55 18 36z m503 -190 c29
-7 66 -9 83 -6 31 6 31 6 13 -14 -10 -11 -40 -34 -66 -51 -41 -26 -59 -31
-108 -31 -32 0 -83 7 -113 16 -56 16 -159 71 -157 84 0 4 46 30 101 57 l101
50 47 -46 c35 -35 60 -49 99 -59z"/>
<path d="M1643 2096 c-104 -34 -194 -114 -242 -216 -22 -48 -26 -69 -26 -155
0 -93 2 -105 32 -166 20 -40 53 -85 83 -113 230 -215 590 -96 650 215 32 162
-66 344 -222 414 -75 34 -205 44 -275 21z m127 -302 c0 -96 -3 -125 -12 -122
-9 3 -14 40 -16 126 -2 104 0 122 13 122 13 0 15 -20 15 -126z m-114 -29 c-38
-56 -35 -108 7 -150 62 -62 158 -55 204 14 31 45 29 79 -7 132 -32 49 -26 76
11 43 77 -70 62 -196 -31 -245 -41 -23 -120 -25 -158 -5 -94 49 -119 165 -51
237 42 45 60 26 25 -26z"/>
</g>
</svg>
